<?xml version="1.0" encoding="utf-8"?>
<!-- Generator: Adobe Illustrator 24.1.2, SVG Export Plug-In . SVG Version: 6.00 Build 0)  -->
<svg version="1.1" id="Layer_1" xmlns="http://www.w3.org/2000/svg" x="0px" y="0px"
     viewBox="0 0 40 40" style="enable-background:new 0 0 40 40;" xml:space="preserve">
<style type="text/css">
	.st0{fill:#DB5860;}
	.st1{fill:#FFFFFF;}
</style>
    <circle class="st0" cx="20.02" cy="20.06" r="16.04"/>
    <g>
	<path class="st1" d="M16.24,25.06c0.86,0.53,2.11,0.97,3.43,0.97c1.96,0,3.1-1.03,3.1-2.53c0-1.39-0.79-2.18-2.79-2.95
		c-2.42-0.86-3.92-2.11-3.92-4.2c0-2.31,1.91-4.03,4.8-4.03c1.52,0,2.62,0.35,3.28,0.73l-0.53,1.56c-0.48-0.26-1.47-0.7-2.82-0.7
		c-2.02,0-2.79,1.21-2.79,2.22c0,1.39,0.9,2.07,2.95,2.86c2.51,0.97,3.79,2.18,3.79,4.36c0,2.29-1.69,4.27-5.19,4.27
		c-1.43,0-2.99-0.42-3.78-0.95L16.24,25.06z"/>
	</g>
</svg>
